#N canvas 554 27 678 650 10;
#X obj 48 246 dac~;
#X obj 53 46 adc~;
#X obj 176 63 hsl 128 15 0 1 0 0 empty empty empty -2 -8 0 10 -262144
-1 -1 20000 1;
#X obj 50 132 *~ 0.1;
#X connect 1 0 3 0;
#X connect 2 0 3 1;
#X connect 3 0 0 0;
