#N canvas 384 48 1067 806 10;
#X obj 37 151 readsf~ 2;
#X obj 94 255 dac~;
#X msg 65 95 1;
#X msg 100 91 0;
#X msg 48 24 open SpeakSoftly_NorthIsFalse/01_Loop1.wav;
#X obj 73 10 bng 8 250 50 0 empty empty empty 17 7 0 10 -262144 -1
-1;
#X msg 88 54 open SpeakSoftly_NorthIsFalse/02_Loop2.wav;
#X obj 109 151 readsf~ 2;
#X msg 130 91 1;
#X msg 166 91 0;
#X obj 179 152 readsf~ 2;
#X msg 202 93 0;
#X msg 158 73 open SpeakSoftly_NorthIsFalse/04_Rhodes.wav \, start
;
#N canvas 493 222 765 560 mixer 0;
#X obj 88 39 inlet~;
#X obj 148 39 inlet~;
#X obj 30 38 inlet~;
#X obj 29 141 outlet~;
#X obj 46 72 +~;
#X obj 60 101 +~;
#X connect 0 0 4 1;
#X connect 1 0 5 1;
#X connect 2 0 4 0;
#X connect 4 0 5 0;
#X connect 5 0 3 0;
#X restore 148 205 pd mixer;
#N canvas 493 222 765 560 mixer 0;
#X obj 88 39 inlet~;
#X obj 148 39 inlet~;
#X obj 30 38 inlet~;
#X obj 29 141 outlet~;
#X obj 46 72 +~;
#X obj 60 101 +~;
#X connect 0 0 4 1;
#X connect 1 0 5 1;
#X connect 2 0 4 0;
#X connect 4 0 5 0;
#X connect 5 0 3 0;
#X restore 44 201 pd mixer;
#X obj 170 247 rfft~;
#X obj 162 285 print~ real;
#X obj 254 285 print~ imaginary;
#X obj 246 220 bng 8 250 50 0 empty empty empty 17 7 0 10 -262144 -1
-1;
#X obj 16 281 sigmund~ notes env;
#X floatatom 16 320 5 0 0 0 - - -, f 5;
#X floatatom 132 317 5 0 0 0 - - -, f 5;
#X obj 247 129 vsl 15 64 100 10000 0 0 empty empty empty 0 -9 0 10
-262144 -1 -1 5800 1;
#X obj 121 232 lop~;
#X obj 69 230 lop~;
#X connect 0 0 14 0;
#X connect 0 1 13 0;
#X connect 2 0 0 0;
#X connect 3 0 0 0;
#X connect 4 0 0 0;
#X connect 5 0 4 0;
#X connect 5 0 2 0;
#X connect 5 0 6 0;
#X connect 5 0 8 0;
#X connect 5 0 12 0;
#X connect 6 0 7 0;
#X connect 7 0 14 1;
#X connect 7 1 13 1;
#X connect 8 0 7 0;
#X connect 9 0 7 0;
#X connect 10 0 14 2;
#X connect 10 0 13 2;
#X connect 11 0 10 0;
#X connect 12 0 10 0;
#X connect 13 0 23 0;
#X connect 14 0 19 0;
#X connect 14 0 24 0;
#X connect 15 0 16 0;
#X connect 15 1 17 0;
#X connect 18 0 16 0;
#X connect 18 0 17 0;
#X connect 19 0 20 0;
#X connect 19 1 21 0;
#X connect 22 0 24 1;
#X connect 22 0 23 1;
#X connect 23 0 1 1;
#X connect 24 0 1 0;
