#N canvas 425 23 1067 806 10;
#X obj 27 144 readsf~ 2;
#X obj 97 244 dac~;
#X msg 66 92 1;
#X msg 68 121 0;
#X msg 48 24 open SpeakSoftly_NorthIsFalse/01_Loop1.wav;
#X obj 73 10 bng 8 250 50 0 empty empty empty 17 7 0 10 -262144 -1
-1;
#X msg 88 54 open SpeakSoftly_NorthIsFalse/02_Loop2.wav;
#X obj 99 122 readsf~ 2;
#X msg 130 91 1;
#X msg 194 93 0;
#X obj 173 146 readsf~ 2;
#X msg 195 116 0;
#X msg 158 73 open SpeakSoftly_NorthIsFalse/04_Rhodes.wav \, start
;
#N canvas 493 222 765 560 mixer 0;
#X obj 88 39 inlet~;
#X obj 148 39 inlet~;
#X obj 30 38 inlet~;
#X obj 29 141 outlet~;
#X obj 46 72 +~;
#X obj 60 101 +~;
#X connect 0 0 4 1;
#X connect 1 0 5 1;
#X connect 2 0 4 0;
#X connect 4 0 5 0;
#X connect 5 0 3 0;
#X restore 180 182 pd mixer;
#N canvas 493 222 765 560 mixer 0;
#X obj 88 39 inlet~;
#X obj 148 39 inlet~;
#X obj 30 38 inlet~;
#X obj 29 141 outlet~;
#X obj 46 72 +~;
#X obj 60 101 +~;
#X connect 0 0 4 1;
#X connect 1 0 5 1;
#X connect 2 0 4 0;
#X connect 4 0 5 0;
#X connect 5 0 3 0;
#X restore 30 179 pd mixer;
#X obj 189 219 rfft~;
#X obj 169 265 print~ real;
#X obj 249 264 print~ imaginary;
#X obj 266 218 bng 8 250 50 0 empty empty empty 17 7 0 10 -262144 -1
-1;
#X obj 19 265 sigmund~ notes env;
#X floatatom 19 299 5 0 0 0 - - -, f 5;
#X floatatom 123 298 5 0 0 0 - - -, f 5;
#X obj 63 216 lop~;
#X obj 145 221 lop~;
#X obj 95 191 hsl 64 15 50 10000 0 0 empty empty empty -2 -8 0 10 -262144
-1 -1 10147 1;
#X obj 175 359 bng 7 250 50 0 empty empty empty 17 7 0 10 -262144 -1
-1;
#X obj 110 358 bng 7 250 50 0 empty empty empty 17 7 0 10 -262144 -1
-1;
#X obj 124 325 moses 78;
#X msg 66 343 8000;
#X msg 205 344 80;
#X connect 0 0 14 0;
#X connect 0 1 13 0;
#X connect 2 0 0 0;
#X connect 3 0 0 0;
#X connect 4 0 0 0;
#X connect 5 0 4 0;
#X connect 5 0 2 0;
#X connect 5 0 6 0;
#X connect 5 0 8 0;
#X connect 5 0 12 0;
#X connect 6 0 7 0;
#X connect 7 0 14 1;
#X connect 7 1 13 1;
#X connect 8 0 7 0;
#X connect 9 0 7 0;
#X connect 10 0 14 2;
#X connect 10 0 13 2;
#X connect 11 0 10 0;
#X connect 12 0 10 0;
#X connect 13 0 15 0;
#X connect 13 0 23 0;
#X connect 14 0 19 0;
#X connect 14 0 22 0;
#X connect 15 0 16 0;
#X connect 15 1 17 0;
#X connect 18 0 16 0;
#X connect 18 0 17 0;
#X connect 19 0 20 0;
#X connect 19 1 21 0;
#X connect 21 0 27 0;
#X connect 22 0 1 0;
#X connect 23 0 1 1;
#X connect 24 0 22 1;
#X connect 24 0 23 1;
#X connect 25 0 29 0;
#X connect 26 0 28 0;
#X connect 27 0 26 0;
#X connect 27 1 25 0;
#X connect 28 0 24 0;
#X connect 29 0 24 0;
